<?xml version="1.0" encoding="UTF-8" standalone="no"?>
<svg
   id="Capa_1"
   style="enable-background:new 0 0 512 512;"
   version="1.1"
   viewBox="0 0 512 512"
   xml:space="preserve"
   sodipodi:docname="bookmoney.svg"
   inkscape:version="1.3.2 (091e20e, 2023-11-25, custom)"
   xmlns:inkscape="http://www.inkscape.org/namespaces/inkscape"
   xmlns:sodipodi="http://sodipodi.sourceforge.net/DTD/sodipodi-0.dtd"
   xmlns="http://www.w3.org/2000/svg"
   xmlns:svg="http://www.w3.org/2000/svg"><defs
     id="defs27" /><sodipodi:namedview
     id="namedview27"
     pagecolor="#ffffff"
     bordercolor="#000000"
     borderopacity="0.25"
     inkscape:showpageshadow="2"
     inkscape:pageopacity="0.0"
     inkscape:pagecheckerboard="0"
     inkscape:deskcolor="#d1d1d1"
     inkscape:zoom="1.5878906"
     inkscape:cx="256"
     inkscape:cy="256"
     inkscape:window-width="1920"
     inkscape:window-height="1009"
     inkscape:window-x="-8"
     inkscape:window-y="-8"
     inkscape:window-maximized="1"
     inkscape:current-layer="Capa_1" /><g
     id="g2"
     style="fill:#ffffff"><g
       id="g1"
       style="fill:#ffffff"><path
         d="M96,306c-5.52,0-10,4.48-10,10c0,5.52,4.48,10,10,10s10-4.48,10-10C106,310.48,101.52,306,96,306z"
         id="path1"
         style="fill:#ffffff" /></g></g><g
     id="g4"
     style="fill:#ffffff"><g
       id="g3"
       style="fill:#ffffff"><path
         d="M316,266h-10v-40h10c5.514,0,10,4.486,10,10c0,5.522,4.477,10,10,10s10-4.478,10-10c0-16.542-13.458-30-30-30h-10v-10    c0-5.522-4.477-10-10-10s-10,4.478-10,10v10h-10c-16.542,0-30,13.458-30,30v20c0,16.542,13.458,30,30,30h10v40h-10    c-5.514,0-10-4.486-10-10c0-5.522-4.477-10-10-10s-10,4.478-10,10c0,16.542,13.458,30,30,30h10v10c0,5.522,4.477,10,10,10    s10-4.478,10-10v-10h10c16.542,0,30-13.458,30-30v-20C346,279.458,332.542,266,316,266z M286,266h-10c-5.514,0-10-4.486-10-10v-20    c0-5.514,4.486-10,10-10h10V266z M326,316c0,5.514-4.486,10-10,10h-10v-40h10c5.514,0,10,4.486,10,10V316z"
         id="path2"
         style="fill:#ffffff" /></g></g><g
     id="g6"
     style="fill:#ffffff"><g
       id="g5"
       style="fill:#ffffff"><path
         d="M464.946,426.47c0.026-0.053,0.043-0.109,0.068-0.162c0.135-0.282,0.257-0.571,0.365-0.866    c0.032-0.086,0.065-0.171,0.094-0.258c0.123-0.365,0.23-0.736,0.311-1.119c0.001-0.003,0.002-0.006,0.003-0.01    c0.079-0.379,0.133-0.767,0.168-1.161c0.01-0.113,0.011-0.226,0.017-0.339c0.01-0.185,0.028-0.368,0.028-0.555V30    c0-16.542-13.458-30-30-30H116C77.402,0,46,31.402,46,70v391.99c0,0.001,0,0.002,0,0.003c0,0.002,0,0.004,0,0.007    c0,27.57,22.43,50,50,50h360c3.465,0,6.684-1.794,8.506-4.741c1.822-2.947,1.988-6.628,0.44-9.729l-6.583-13.175    c-7.003-13.998-7.003-30.713,0.002-44.716L464.946,426.47z M66,70c0-27.57,22.43-50,50-50h8.33v392H96    c-10.965,0-21.389,3.516-30,10.004V70z M439.841,492H96c-16.542,0-30-13.458-30-30.01c0-8.002,3.122-15.53,8.791-21.199    C80.46,435.122,87.993,432,96,432h343.841C430.882,450.894,430.883,473.111,439.841,492z M446,412H144.33V20H436    c5.514,0,10,4.486,10,10V412z"
         id="path4"
         style="fill:#ffffff" /></g></g><g
     id="g8"
     style="fill:#ffffff"><g
       id="g7"
       style="fill:#ffffff"><path
         d="M96,103c-5.523,0-10,4.478-10,10v163c0,5.522,4.477,10,10,10s10-4.478,10-10V113C106,107.478,101.523,103,96,103z"
         id="path6"
         style="fill:#ffffff" /></g></g><g
     id="g10"
     style="fill:#ffffff"><g
       id="g9"
       style="fill:#ffffff"><path
         d="M396,60H196c-5.523,0-10,4.478-10,10v83c0,5.522,4.477,10,10,10h200c5.523,0,10-4.478,10-10V70    C406,64.478,401.523,60,396,60z M386,143H206V80h180V143z"
         id="path8"
         style="fill:#ffffff" /></g></g><g
     id="g12"
     style="fill:#ffffff"><g
       id="g11"
       style="fill:#ffffff"><path
         d="M356,103H236c-5.523,0-10,4.478-10,10c0,5.522,4.477,10,10,10h120c5.523,0,10-4.478,10-10    C366,107.478,361.523,103,356,103z"
         id="path10"
         style="fill:#ffffff" /></g></g><g
     id="g13"
     style="fill:#ffffff" /><g
     id="g14"
     style="fill:#ffffff" /><g
     id="g15"
     style="fill:#ffffff" /><g
     id="g16"
     style="fill:#ffffff" /><g
     id="g17"
     style="fill:#ffffff" /><g
     id="g18"
     style="fill:#ffffff" /><g
     id="g19"
     style="fill:#ffffff" /><g
     id="g20"
     style="fill:#ffffff" /><g
     id="g21"
     style="fill:#ffffff" /><g
     id="g22"
     style="fill:#ffffff" /><g
     id="g23"
     style="fill:#ffffff" /><g
     id="g24"
     style="fill:#ffffff" /><g
     id="g25"
     style="fill:#ffffff" /><g
     id="g26"
     style="fill:#ffffff" /><g
     id="g27"
     style="fill:#ffffff" /></svg>
