<?xml version="1.0" encoding="UTF-8" standalone="no" ?>
<!DOCTYPE svg PUBLIC "-//W3C//DTD SVG 1.1//EN" "http://www.w3.org/Graphics/SVG/1.1/DTD/svg11.dtd">
<svg xmlns="http://www.w3.org/2000/svg" xmlns:xlink="http://www.w3.org/1999/xlink" version="1.1" width="640" height="640" viewBox="0 0 640 640" xml:space="preserve">
<desc>Created with Fabric.js 5.3.0</desc>
<defs>
</defs>
<g transform="matrix(7.32 0 0 4.19 320.1990371568 315.5104345882)" id="bjbhGHs-B81Df_ndnVyO9"  >
<path style="stroke: rgb(175,57,231); stroke-width: 0; stroke-dasharray: none; stroke-linecap: butt; stroke-dashoffset: 0; stroke-linejoin: miter; stroke-miterlimit: 4; fill: rgb(247,47,58); fill-rule: nonzero; opacity: 1;"  transform=" translate(-0.0000216741, -0.000005)" d="M -24.9979 20.56137 L -23.83761 -18.496689999999997 L -23.344150000000003 -19.550209999999996 L -20.736340000000002 -22.738839999999996 L -14.39966 -23.859179999999995 L -11.26538 -25.032759999999996 L -9.73184 -25.698159999999994 L -6.88139 -26.425559999999994 L -4.57851 -26.363869999999995 L -3.16146 -25.903389999999995 L -1.78939 -25.056259999999995 L -0.6944300000000001 -23.850609999999996 L 0.4712399999999999 -22.400299999999994 L 4.11358 -25.408239999999996 L 5.77381 -26.027219999999996 L 8.36553 -25.961069999999996 C 8.36553 -25.961069999999996 7.4631799999999995 -26.265689999999996 10.66083 -25.123679999999997 C 11.241380000000001 -24.916339999999998 11.7383 -24.236649999999997 12.52092 -23.958099999999998 C 13.081290000000001 -23.75865 13.63287 -23.175649999999997 14.246120000000001 -22.978959999999997 C 17.49388 -21.937279999999998 21.15612 -21.393039999999996 21.15612 -21.393039999999996 L 23.08099 -18.641509999999997 C 23.11349 -18.600019999999997 23.28616 -18.521029999999996 23.31714 -18.476119999999998 C 23.72824 -17.88002 23.76627 -17.31685 23.797289999999997 -16.38507 C 23.797289999999997 -16.38507 23.817099999999996 -15.494449999999999 23.854979999999998 -13.81604 C 23.93931 -10.079809999999998 24.250909999999998 -2.8205099999999987 24.49525 4.511910000000002 C 24.61947 8.239660000000002 24.62129 11.109430000000003 24.79582 15.199330000000002 C 24.83559 16.13134 24.94795 19.18672 25.048959999999997 21.01531 L 25.048959999999997 21.01531 L 25.048959999999997 21.01531 C 25.102819999999998 21.63588 24.99927 22.26665 24.76532 22.743009999999998 C 24.53137 23.219369999999998 24.19025 23.494049999999998 23.83097 23.495359999999998 L 16.10896 23.523519999999998 L 10.8584 22.220609999999997 L 9.0983 22.121889999999997 L 7.3260000000000005 22.103729999999995 L 3.8486900000000004 23.183199999999996 L 3.2862800000000005 23.827259999999995 L 3.1611600000000006 25.927189999999996 L 2.7360600000000006 26.375639999999997 L -2.359199999999999 26.425569999999997 L -2.765509999999999 25.683049999999998 L -3.048839999999999 24.30988 L -3.5794499999999987 23.96809 L -23.690369999999998 25.2618 L -23.690369999999998 25.2618 C -24.06085 25.28563 -24.42007 25.03697 -24.68066 24.5763 C -24.94125 24.11563 -25.07933 23.48517 -25.06131 22.83826 z" stroke-linecap="round" />
</g>
<g transform="matrix(21.2882641443 0 0 14.6064531792 321.3821563324 310.3445911376)" id="onHMFpLmcfB2AzOuTZhmS"  >
<path style="stroke: rgb(197,147,121); stroke-width: 0; stroke-dasharray: none; stroke-linecap: butt; stroke-dashoffset: 0; stroke-linejoin: miter; stroke-miterlimit: 4; fill: rgb(245,222,179); fill-rule: nonzero; opacity: 1;"  transform=" translate(0.000005, 0.000005)" d="M -8.05819 4.37005 L -7.9712 -4.655130000000001 L -7.231459999999999 -6.1377500000000005 L -4.986609999999999 -6.447220000000001 L -3.602729999999999 -6.991340000000001 L -2.324769999999999 -7.197640000000001 L -1.6267199999999993 -7.186640000000001 L -0.8961899999999993 -6.963710000000001 L -0.0805099999999993 -6.22794 L 0.0688100000000007 -6.04953 L 1.1873300000000007 -6.85943 L 1.7983800000000008 -7.0946 L 2.8761100000000006 -7.06577 L 3.9718500000000008 -6.64028 L 4.790960000000001 -6.18896 L 7.175480000000001 -5.7367 L 7.780160000000001 -4.7026699999999995 L 8.107890000000001 6.59586 L 6.868180000000001 6.71879 L 6.13088 6.7657 L 5.2947500000000005 6.5778 L 3.911250000000001 6.02303 L 2.945840000000001 5.71314 L 1.923680000000001 5.7843800000000005 L 1.430730000000001 5.96302 L 0.9359400000000009 6.32845 L 0.6459100000000009 6.71025 L 0.38745000000000085 7.01231 L 0.17870000000000086 7.11428 L -0.26569999999999916 7.14815 L -0.6613899999999991 7.19763 L -1.0262699999999991 7.03368 L -1.489949999999999 6.577540000000001 L -2.128159999999999 6.313090000000001 L -2.602639999999999 6.215090000000001 L -3.5708899999999995 6.432440000000001 L -4.8474699999999995 6.720940000000001 L -5.507579999999999 6.876030000000001 L -6.513269999999999 6.894940000000001 L -8.107899999999999 6.775640000000001 z" stroke-linecap="round" />
</g>
<g transform="matrix(-0.3721030179 0.1137633092 -0.1137633092 -0.3721030179 443.5231731614 267.6245594821)" id="4gcUigVzZIMxaSM0CgEwe"  >
<path style="stroke: none; stroke-width: 1; stroke-dasharray: none; stroke-linecap: butt; stroke-dashoffset: 0; stroke-linejoin: miter; stroke-miterlimit: 4; fill: rgb(50,205,50); fill-rule: nonzero; opacity: 1;"  transform=" translate(0.000005, -0.000005)" d="M -36.23225 -47.8035 L -7.781829999999999 -16.84957 L 51.6422 47.80351 L -51.64220999999999 42.79668 z" stroke-linecap="round" />
</g>
<g transform="matrix(6.98 0 0 0.16 323.3939015748 435.6001715221)" id="0pFptjxHUaNV5t43mRBPM"  >
<path style="stroke: rgb(0,0,0); stroke-width: 1; stroke-dasharray: none; stroke-linecap: butt; stroke-dashoffset: 0; stroke-linejoin: miter; stroke-miterlimit: 4; fill: rgb(247,47,58); fill-rule: nonzero; opacity: 1;" vector-effect="non-scaling-stroke"  transform=" translate(0, 0)" d="M -26.73797 -26.73797 L 26.73797 -26.73797 L 26.73797 26.73797 L -26.73797 26.73797 z" stroke-linecap="round" />
</g>
<g transform="matrix(1.0622033906 0.8601553457 -0.9989548418 1.2336064936 435.3358220788 275.1077076125)" id="cY4fs6rJhfEhb4taakuMD"  >
<path style="stroke: rgb(115,42,172); stroke-width: 0; stroke-dasharray: none; stroke-linecap: butt; stroke-dashoffset: 0; stroke-linejoin: miter; stroke-miterlimit: 4; fill: rgb(50,205,50); fill-rule: nonzero; opacity: 1;"  transform=" translate(0.000005, 0.000005)" d="M -6.33714 -6.33714 L 6.33713 -6.33714 L 6.33713 6.33713 L -6.33714 6.33713 z" stroke-linecap="round" />
</g>
<g transform="matrix(1.8746081703 1.1263782257 -0.371502989 0.6182848022 363.641484366 324.6324466152)" id="PZFSkVRPGp5A7FHkcIJuh"  >
<path style="stroke: rgb(165,148,139); stroke-width: 0; stroke-dasharray: none; stroke-linecap: butt; stroke-dashoffset: 0; stroke-linejoin: miter; stroke-miterlimit: 4; fill: rgb(50,205,50); fill-rule: nonzero; opacity: 1;"  transform=" translate(-0.000005, -0.000005)" d="M -7.01262 -7.01262 L 7.01263 -7.01262 L 7.01263 7.01263 L -7.01262 7.01263 z" stroke-linecap="round" />
</g>
<g transform="matrix(-0.1212977668 -0.10544254 0.2496717878 -0.2872145369 337.9589454596 337.1200912491)" id="VAHXvqgMYRtTIeeh41VHz"  >
<path style="stroke: none; stroke-width: 1; stroke-dasharray: none; stroke-linecap: butt; stroke-dashoffset: 0; stroke-linejoin: miter; stroke-miterlimit: 4; fill: rgb(50,205,50); fill-rule: nonzero; opacity: 1;"  transform=" translate(0.000005, -0.000005)" d="M 3.05545 4.73466 L 20.5878 49.78001 L 20.5878 49.78001 L -20.587809999999998 54.990469999999995 L -17.17065 4.8176599999999965 L -18.339399999999998 -54.990460000000006 z" stroke-linecap="round" />
</g>
<g transform="matrix(-0.1716424765 -0.1600591987 0.1600591987 -0.1716424765 342.6628534714 337.2606823116)" id="dkx08h3wEqxldWAAi7dMj"  >
<path style="stroke: none; stroke-width: 1; stroke-dasharray: none; stroke-linecap: butt; stroke-dashoffset: 0; stroke-linejoin: miter; stroke-miterlimit: 4; fill: rgb(34,139,34); fill-rule: nonzero; opacity: 1;"  transform=" translate(-0.000005, -0.00001)" d="M 3.58084 -13.99307 L 6.88411 68.96030999999999 L 1.2939999999999996 71.64295 L -6.884100000000001 71.41129 L -5.2919100000000014 -12.906080000000003 L -2.7643100000000014 -71.64293 z" stroke-linecap="round" />
</g>
<g transform="matrix(0.1972964729 0.1776465421 -0.8601008468 0.9552387645 443.3360406668 282.5322114554)" id="qS9BgZWwXFiFxKIradGc9"  >
<path style="stroke: rgb(122,139,116); stroke-width: 0; stroke-dasharray: none; stroke-linecap: butt; stroke-dashoffset: 0; stroke-linejoin: miter; stroke-miterlimit: 4; fill: rgb(34,139,34); fill-rule: nonzero; opacity: 1;"  transform=" translate(0.000005, 0)" d="M -9.76683 -8.1253 L 9.766820000000001 -8.81834 L 9.766820000000001 8.81834 L -7.869859999999997 8.81834 z" stroke-linecap="round" />
</g>
<g transform="matrix(0.2311753799 -0.0242975115 0.205793694 1.9579962067 462.1231350808 264.7451514558)" id="D8WfXnHX_vR1BknmKlhCg"  >
<path style="stroke: rgb(151,38,216); stroke-width: 0; stroke-dasharray: none; stroke-linecap: butt; stroke-dashoffset: 0; stroke-linejoin: miter; stroke-miterlimit: 4; fill: rgb(34,139,34); fill-rule: nonzero; opacity: 1;"  transform=" translate(0, 0)" d="M -8.77019 -9.72714 L 8.77019 -8.29472 L 8.20352 9.72714 L -8.038740000000002 8.36663 z" stroke-linecap="round" />
</g>
<g transform="matrix(1 0 0 1 392.8812342059 302.1471793892)" id="uozlk-k18wIFIlWz-lLZS"  >
<path style="stroke: rgb(0,0,0); stroke-width: 1; stroke-dasharray: none; stroke-linecap: butt; stroke-dashoffset: 0; stroke-linejoin: miter; stroke-miterlimit: 4; fill: rgb(255,255,255); fill-opacity: 0; fill-rule: nonzero; opacity: 1;"  transform=" translate(-0.000005, -0.000005)" d="M -69.06235 56.90794 L -37.98967999999999 23.987530000000007 L -18.607819999999993 33.993590000000005 L -15.146979999999992 28.711260000000003 L 44.91582000000001 -9.90607 L 60.49967000000001 -26.21394 L 69.06236000000001 -21.01516 L 64.93392000000001 -56.90793" stroke-linecap="round" />
</g>
<g transform="matrix(1 0 0 1 394.8816101409 301.9950495718)" id="vnMVmK3tK8oT8VfgRpF6I"  >
<path style="stroke: rgb(0,0,0); stroke-width: 1; stroke-dasharray: none; stroke-linecap: butt; stroke-dashoffset: 0; stroke-linejoin: miter; stroke-miterlimit: 4; fill: rgb(255,255,255); fill-opacity: 0; fill-rule: nonzero; opacity: 1;"  transform=" translate(0.000005, 0)" d="M -71.06273 56.56007 L -41.93366 10.170180000000002 L -18.648460000000004 25.33263 L 37.849729999999994 -37.48325 L 23.589799999999993 -46.50852 L 63.06372999999999 -56.560069999999996 L 67.63311999999999 -53.72873 L 71.06271999999998 -18.349669999999996 L 53.73419999999999 -28.818979999999996 L 41.27932999999999 -14.446779999999997 L -17.38493000000001 29.303760000000004 L -20.45352000000001 34.357910000000004 L -41.93366000000001 22.761550000000003 z" stroke-linecap="round" />
</g>
<g transform="matrix(2.9248036312 1.3022064755 -0.7989100122 1.7943812664 266.777440429 259.0477170176)" id="BIzFQecp7m9wM_iKUf3Gs"  >
<path style="stroke: rgb(201,171,94); stroke-width: 0; stroke-dasharray: none; stroke-linecap: butt; stroke-dashoffset: 0; stroke-linejoin: miter; stroke-miterlimit: 4; fill: rgb(160,10,18); fill-rule: nonzero; opacity: 1;"  transform=" translate(-0.000005, 0.000005)" d="M -13.02083 -9.88741 C -13.02083 -11.617949999999999 -12.16015 -13.02084 -11.09846 -13.02084 L 12.220220000000001 -13.02084 L 12.220220000000001 -13.02084 C 12.662390000000002 -13.02084 13.020840000000002 -12.43658 13.020840000000002 -11.71585 L 13.020840000000002 12.383580000000002 L 13.020840000000002 12.383580000000002 C 13.020840000000002 12.735520000000003 12.845800000000002 13.020830000000002 12.629880000000002 13.020830000000002 L -12.147069999999998 13.020830000000002 L -12.147069999999998 13.020830000000002 C -12.629639999999998 13.020830000000002 -13.020829999999998 12.383190000000003 -13.020829999999998 11.596620000000001 z" stroke-linecap="round" />
</g>
<g transform="matrix(5.5009436447 2.5651321486 -0.2660332553 0.570510157 259.7884808064 274.2722816223)" id="6G05qd6sszw3n6ettrJvo"  >
<path style="stroke: rgb(4,66,222); stroke-width: 0; stroke-dasharray: none; stroke-linecap: butt; stroke-dashoffset: 0; stroke-linejoin: miter; stroke-miterlimit: 4; fill: rgb(0,0,0); fill-rule: nonzero; opacity: 1;"  transform=" translate(0, 0)" d="M -6.92521 -6.92521 L 6.92521 -6.92521 L 6.92521 6.92521 L -6.92521 6.92521 z" stroke-linecap="round" />
</g>
<g transform="matrix(1 0 0 1 266.4286681177 259.747082865)" id="TMAnuXQ04O-pdtcMPCL_C"  >
<path style="stroke: rgb(0,0,0); stroke-width: 1; stroke-dasharray: none; stroke-linecap: butt; stroke-dashoffset: 0; stroke-linejoin: miter; stroke-miterlimit: 4; fill: rgb(255,255,255); fill-opacity: 0; fill-rule: nonzero; opacity: 1;"  transform=" translate(-0.0000056035, 0.0000038029)" d="M 15.11916 34.1157 L 25.17144 38.81699 C 25.96183 39.18664 26.86825 39.22036 27.68392 38.91045 C 28.49959 38.600539999999995 29.15493 37.97343 29.50044 37.17219 L 47.34293 -4.204349999999998 L 47.34293 -4.204349999999998 C 47.721410000000006 -5.082029999999998 47.73518 -6.074219999999998 47.38121 -6.962069999999998 C 47.027240000000006 -7.849919999999998 46.33462 -8.560479999999998 45.45611 -8.937019999999999 L -24.358939999999997 -38.86105 L -24.358939999999997 -38.86105 C -25.943629999999995 -39.540279999999996 -27.781639999999996 -38.84332 -28.517539999999997 -37.28414 L -31.533029999999997 -30.89516 L -47.396789999999996 2.7157400000000003 L -47.396789999999996 2.7157400000000003 C -47.972829999999995 3.93621 -47.479099999999995 5.39367 -46.279889999999995 6.0127500000000005 L -39.85151 9.331330000000001" stroke-linecap="round" />
</g>
<g transform="matrix(7.0256163128 0 0 7.0256163128 398.8971329603 298.6923607989)" id="2hdKEkRSHq46m6qxr5pJ_"  >
<path style="stroke: rgb(137,218,221); stroke-width: 0; stroke-dasharray: none; stroke-linecap: butt; stroke-dashoffset: 0; stroke-linejoin: miter; stroke-miterlimit: 4; fill: rgb(0,0,0); fill-rule: nonzero; opacity: 1;"  transform=" translate(0, 0)" d="M 0 -5.6243 C 3.10461 -5.6243 5.6243 -3.1046099999999996 5.6243 0 C 5.6243 3.10461 3.1046099999999996 5.6243 0 5.6243 C -3.10461 5.6243 -5.6243 3.1046099999999996 -5.6243 0 C -5.6243 -3.10461 -3.1046099999999996 -5.6243 0 -5.6243 z" stroke-linecap="round" />
</g>
<g transform="matrix(5.8568703704 -1.1384602732 0.7168690486 3.687971543 238.7565330049 292.0073945718)" id="NVOLhzNFanz2b9wv6FA63"  >
<path style="stroke: rgb(161,217,142); stroke-width: 0; stroke-dasharray: none; stroke-linecap: butt; stroke-dashoffset: 0; stroke-linejoin: miter; stroke-miterlimit: 4; fill: rgb(160,10,18); fill-rule: nonzero; opacity: 1;"  transform=" translate(0, -0.00001)" d="M -6.96379 -5.35821 C -6.96379 -6.24494 -6.511150000000001 -6.96378 -5.95279 -6.96378 L 6.25615 -6.96378 L 6.25615 -6.96378 C 6.64697 -6.96378 6.9637899999999995 -6.46064 6.9637899999999995 -5.83998 L 6.9637899999999995 5.540770000000001 L 6.9637899999999995 5.540770000000001 C 6.9637899999999995 6.326690000000001 6.562609999999999 6.963800000000001 6.067729999999999 6.963800000000001 L -6.070020000000001 6.963800000000001 L -6.070020000000001 6.963800000000001 C -6.563630000000002 6.963800000000001 -6.963780000000002 6.328320000000001 -6.963780000000002 5.544410000000001 z" stroke-linecap="round" />
</g>
<g transform="matrix(0.4721575183 -0.0917781244 0.0660203766 0.3396453937 265.5522596648 292.0073945718)" id="pjYMrj8iSwplNAR8Gapty"  >
<path style="stroke: rgb(252,120,95); stroke-width: 0; stroke-dasharray: none; stroke-linecap: butt; stroke-dashoffset: 0; stroke-linejoin: miter; stroke-miterlimit: 4; fill: rgb(213,210,143); fill-rule: nonzero; opacity: 1;"  transform=" translate(0, -0.000005)" d="M -11.54734 -11.54734 L 7.8832499999999985 -11.54734 L 7.8832499999999985 -11.54734 C 9.906879999999997 -11.54734 11.547349999999998 -9.26684 11.547349999999998 -6.45369 L 11.547349999999998 4.43811 L 11.547349999999998 4.43811 C 11.547349999999998 8.36444 9.257729999999999 11.54735 6.433329999999998 11.54735 L -8.138430000000001 11.54735 L -8.138430000000001 11.54735 C -10.021120000000002 11.54735 -11.547350000000002 9.42567 -11.547350000000002 6.80845 z" stroke-linecap="round" />
</g>
<g transform="matrix(2.2250749343 0 0 2.2250749343 398.8971329603 298.6469943046)" id="IyqUh3OLHyDcpxNQnndVi"  >
<path style="stroke: rgb(213,75,158); stroke-width: 0; stroke-dasharray: none; stroke-linecap: butt; stroke-dashoffset: 0; stroke-linejoin: miter; stroke-miterlimit: 4; fill: rgb(218,165,32); fill-rule: nonzero; opacity: 1;"  transform=" translate(0, 0)" d="M 0 -17.48252 C 9.65035 -17.48252 17.48252 -9.650350000000001 17.48252 0 C 17.48252 9.65035 9.650350000000001 17.48252 0 17.48252 C -9.65035 17.48252 -17.48252 9.650350000000001 -17.48252 0 C -17.48252 -9.65035 -9.650350000000001 -17.48252 0 -17.48252 z" stroke-linecap="round" />
</g>
<g transform="matrix(0.1302322442 -0.0253145839 0.0253145839 0.1302322442 263.0237290521 282.7007063103)" id="ZKr5pmFBueyIimkCwY6GM"  >
<g style="opacity: 0.45;"   >
		<g transform="matrix(1 0 0 1 0 21.05)" id="Xs2-OTKnPleNJV-NA2Ra5"  >
<path style="stroke: none; stroke-width: 1; stroke-dasharray: none; stroke-linecap: butt; stroke-dashoffset: 0; stroke-linejoin: miter; stroke-miterlimit: 4; fill: rgb(179,181,179); fill-rule: nonzero; opacity: 1;"  transform=" translate(-40, -61.1)" d="M 40 53.3 C 35.7 53.3 32.2 56.8 32.2 61.099999999999994 C 32.2 65.39999999999999 35.7 68.89999999999999 40 68.89999999999999 C 44.3 68.89999999999999 47.8 65.39999999999999 47.8 61.099999999999994 C 47.8 56.8 44.3 53.3 40 53.3 z" stroke-linecap="round" />
</g>
		<g transform="matrix(1 0 0 1 0 20.95)" id="2Ij_cAFuha9lHRHOHOhv7"  >
<path style="stroke: none; stroke-width: 1; stroke-dasharray: none; stroke-linecap: butt; stroke-dashoffset: 0; stroke-linejoin: miter; stroke-miterlimit: 4; fill: rgb(255,255,255); fill-rule: nonzero; opacity: 1;"  transform=" translate(-40, -61)" d="M 43 61 C 43 62.6 41.7 64 40 64 C 38.3 64 37 62.7 37 61 C 37 59.4 38.3 58 40 58 C 41.7 58 43 59.4 43 61 z" stroke-linecap="round" />
</g>
		<g transform="matrix(1 0 0 1 0 6.9)" id="Oq9C2WAsmgwL4ihLS0ocn"  >
<path style="stroke: none; stroke-width: 1; stroke-dasharray: none; stroke-linecap: butt; stroke-dashoffset: 0; stroke-linejoin: miter; stroke-miterlimit: 4; fill: rgb(179,181,179); fill-rule: nonzero; opacity: 1;"  transform=" translate(-40, -46.95)" d="M 40 41.8 C 46.3 41.8 52.2 44.199999999999996 56.6 48.699999999999996 L 53.2 52.099999999999994 C 49.7 48.599999999999994 45 46.599999999999994 40 46.599999999999994 C 35 46.599999999999994 30.3 48.49999999999999 26.8 52.099999999999994 L 23.400000000000002 48.699999999999996 C 27.8 44.3 33.7 41.8 40 41.8 z" stroke-linecap="round" />
</g>
		<g transform="matrix(1 0 0 1 0 -5.75)" id="LrgMDHa-iHb-WaUqo3O7q"  >
<path style="stroke: none; stroke-width: 1; stroke-dasharray: none; stroke-linecap: butt; stroke-dashoffset: 0; stroke-linejoin: miter; stroke-miterlimit: 4; fill: rgb(179,181,179); fill-rule: nonzero; opacity: 1;"  transform=" translate(-40, -34.3)" d="M 40 26.8 C 50.6 26.8 60.6 30.9 68.1 38.4 L 64.69999999999999 41.8 C 58.1 35.3 49.3 31.6 40 31.6 C 30.700000000000003 31.6 21.9 35.2 15.3 41.8 L 11.9 38.4 C 19.4 30.9 29.4 26.8 40 26.8 z" stroke-linecap="round" />
</g>
		<g transform="matrix(1 0 0 1 0 -18.85)" id="Lvb7PNGSKA8KtMjUvFFNE"  >
<path style="stroke: none; stroke-width: 1; stroke-dasharray: none; stroke-linecap: butt; stroke-dashoffset: 0; stroke-linejoin: miter; stroke-miterlimit: 4; fill: rgb(179,181,179); fill-rule: nonzero; opacity: 1;"  transform=" translate(-40, -21.2)" d="M 40 11.2 C 55.1 11.2 69.3 17.1 80 27.8 L 76.6 31.2 C 66.8 21.4 53.8 16 40 16 C 26.200000000000003 16 13.2 21.4 3.4 31.1 L 0 27.7 C 10.7 17 24.9 11.2 40 11.2 z" stroke-linecap="round" />
</g>
</g>
</g>
<g transform="matrix(1 0 0 1 398.8971329603 300.8443057222)" id="vbxwtPZqKv-uEwG6AwvDr"  >
<path style="stroke: rgb(0,0,0); stroke-width: 1; stroke-dasharray: none; stroke-linecap: butt; stroke-dashoffset: 0; stroke-linejoin: miter; stroke-miterlimit: 4; fill: rgb(255,255,255); fill-opacity: 0; fill-rule: nonzero; opacity: 1;"  transform=" translate(-0.000005, -0.000005)" d="M -16.53005 -15.49011 L -9.01639 -15.983609999999999 L -9.01639 -22.131149999999998 L -5.191249999999999 -22.131149999999998 L -4.508189999999999 -15.983609999999999 L -1.366109999999999 -15.983609999999999 L -1.366109999999999 -22.131149999999998 L 2.441840000000001 -22.131149999999998 L 2.8097600000000007 -15.983609999999999 C 2.8097600000000007 -15.983609999999999 5.485610000000001 -16.26937 7.948930000000001 -15.49011 C 8.521130000000001 -15.309099999999999 8.634450000000001 -15.27864 8.966750000000001 -15.1589 L 8.966750000000001 -15.1589 C 11.02743 -14.4163 12.537830000000001 -12.634039999999999 12.932400000000001 -10.47947 L 13.251380000000001 -8.737649999999999 L 13.251380000000001 -7.908549999999998 L 13.251380000000001 -7.908549999999998 C 13.251380000000001 -6.480439999999998 12.67637 -5.112479999999998 11.65606 -4.113249999999998 L 10.24591 -2.732229999999998 L 11.38294 -2.3591499999999983 L 11.38294 -2.3591499999999983 C 14.18647 -1.4392599999999982 16.19706 1.0297500000000017 16.53003 3.9615000000000014 L 16.53006 3.9617600000000013 L 16.53006 5.083490000000001 L 16.53006 5.083490000000001 C 16.53006 8.118500000000001 14.94381 10.93279 12.347349999999999 12.50432 L 11.338799999999999 13.11476 L 5.737709999999999 14.34427 L 6.420769999999999 22.13116 L 2.441839999999999 22.13116 L 1.742539999999999 15.481660000000002 L -1.3661100000000008 15.481660000000002 L -1.3661100000000008 22.13116 L -5.191250000000001 22.13116 L -5.874310000000001 16.12023 L -14.207640000000001 16.12023 L -13.114740000000001 11.47542 L -9.016380000000002 11.47542 L -9.766860000000001 -11.799669999999999 L -16.53004 -11.799669999999999 z" stroke-linecap="round" />
</g>
<g transform="matrix(1 0 0 1 401.473933365 305.8382328477)" id="lHoGvLvZ9v7DsAFeBnMYz"  >
<path style="stroke: rgb(0,0,0); stroke-width: 1; stroke-dasharray: none; stroke-linecap: butt; stroke-dashoffset: 0; stroke-linejoin: miter; stroke-miterlimit: 4; fill: rgb(255,255,255); fill-opacity: 0; fill-rule: nonzero; opacity: 1;"  transform=" translate(9.832e-7, 0.000005)" d="M -5.67339 -4.49393 L -5.18756 4.49392 L 1.1727299999999996 4.3108900000000006 L 1.1727299999999996 4.3108900000000006 C 2.4455399999999994 4.274260000000001 3.6471899999999997 3.7155000000000005 4.495439999999999 2.7658400000000007 C 5.34369 1.8161800000000008 5.763789999999999 0.5593200000000009 5.657069999999999 -0.7095299999999991 L 5.657069999999999 -0.7095299999999991 L 5.657069999999999 -0.7095299999999991 C 5.477109999999999 -2.849029999999999 3.688049999999999 -4.493929999999999 1.540989999999999 -4.493929999999999 z" stroke-linecap="round" />
</g>
<g transform="matrix(1 0 0 1 399.7612160138 292.2411014927)" id="qf296I1WUDjTBv5jYUtqp"  >
<path style="stroke: rgb(0,0,0); stroke-width: 1; stroke-dasharray: none; stroke-linecap: butt; stroke-dashoffset: 0; stroke-linejoin: miter; stroke-miterlimit: 4; fill: rgb(255,255,255); fill-opacity: 0; fill-rule: nonzero; opacity: 1;"  transform=" translate(0.0000062862, 0)" d="M -4.70993 -4.19284 L -4.30985 4.19284 L 1.2138799999999996 4.19284 L 1.2138799999999996 4.19284 C 2.1699599999999997 4.19284 3.0843299999999996 3.80128 3.7440999999999995 3.1093200000000003 C 4.4038699999999995 2.4173600000000004 4.75146 1.4853900000000002 4.70595 0.5304000000000002 L 4.653829999999999 -0.5633799999999998 L 4.653829999999999 -0.5633799999999998 C 4.557009999999999 -2.59523 2.8814599999999992 -4.19283 0.8472999999999993 -4.19283 z" stroke-linecap="round" />
</g>
<g transform="matrix(1 0 0 1 238.7565330049 291.5768697002)" id="GWUnpSL54vKdhLY-kvXvj"  >
<path style="stroke: rgb(0,0,0); stroke-width: 1; stroke-dasharray: none; stroke-linecap: butt; stroke-dashoffset: 0; stroke-linejoin: miter; stroke-miterlimit: 4; fill: rgb(255,255,255); fill-opacity: 0; fill-rule: nonzero; opacity: 1;"  transform=" translate(-0.0000054283, -0.0000076515)" d="M -41.69594 -17.73095 C -43.88076 -17.28632 -45.2989 -15.16383 -44.8735 -12.97518 L -36.67954 29.18213 L -36.67954 29.18213 C -36.460770000000004 30.3077 -35.80371 31.30021 -34.852990000000005 31.94122 C -33.90227000000001 32.58223 -32.735800000000005 32.8192 -31.610320000000005 32.59998 L 41.61288999999999 18.33737 L 41.61288999999999 18.33737 C 42.69425999999999 18.12674 43.64641999999999 17.49224 44.25712999999999 16.57532 C 44.86783999999999 15.65839 45.08634999999999 14.535250000000001 44.86392999999999 13.456240000000001 L 36.000759999999985 -29.54209 L 36.000759999999985 -29.54209 C 35.56331999999998 -31.66428 33.49084999999999 -33.03211 31.367569999999986 -32.6 z" stroke-linecap="round" />
</g>
<g transform="matrix(1 0 0 1 485.8760269649 398.1873629427)" id="MpT2SND2oh4LtI9sq8gAk"  >
<path style="stroke: rgb(0,0,0); stroke-width: 1; stroke-dasharray: none; stroke-linecap: butt; stroke-dashoffset: 0; stroke-linejoin: miter; stroke-miterlimit: 4; fill: rgb(255,255,255); fill-opacity: 0; fill-rule: nonzero; opacity: 1;"  transform=" translate(0, 0.000005)" d="M -7.82123 -9.86965 L 7.82123 9.86964" stroke-linecap="round" />
</g>
<g transform="matrix(1 0 0 1 155.1181076018 402.6820101363)" id="TWXkg0bljXHaLXIUcRqdQ"  >
<path style="stroke: rgb(0,0,0); stroke-width: 1; stroke-dasharray: none; stroke-linecap: butt; stroke-dashoffset: 0; stroke-linejoin: miter; stroke-miterlimit: 4; fill: rgb(255,255,255); fill-opacity: 0; fill-rule: nonzero; opacity: 1;"  transform=" translate(0, 0)" d="M -7.08536 8.09298 L 7.08536 -8.09298" stroke-linecap="round" />
</g>
<g transform="matrix(1 0 0 1 319.1562104255 315.2766233759)" id="kn7Y-yWzhBYLadJBCWJHL"  >
<path style="stroke: rgb(0,0,0); stroke-width: 1; stroke-dasharray: none; stroke-linecap: butt; stroke-dashoffset: 0; stroke-linejoin: miter; stroke-miterlimit: 4; fill: rgb(255,255,255); fill-opacity: 0; fill-rule: nonzero; opacity: 1;"  transform=" translate(0.000005, 0)" d="M 3.92984 -93.3232 L -3.9298499999999996 93.3232" stroke-linecap="round" />
</g>
<g transform="matrix(1 0 0 1 161.5353982301 239.3982803668)" id="zElHv9vgyxOYFeB1LuuI2"  >
<path style="stroke: rgb(0,0,0); stroke-width: 1; stroke-dasharray: none; stroke-linecap: butt; stroke-dashoffset: 0; stroke-linejoin: miter; stroke-miterlimit: 4; fill: rgb(255,255,255); fill-opacity: 0; fill-rule: nonzero; opacity: 1;"  transform=" translate(0, 0)" d="M 0 0" stroke-linecap="round" />
</g>
<g transform="matrix(0.9998476952 -0.0174524064 0.0174524064 0.9998476952 265.1389344773 291.66120869)" id="-axAXsCne4lxU-3QRM6ze"  >
<path style="stroke: rgb(0,0,0); stroke-width: 1; stroke-dasharray: none; stroke-linecap: butt; stroke-dashoffset: 0; stroke-linejoin: miter; stroke-miterlimit: 4; fill: rgb(255,255,255); fill-opacity: 0; fill-rule: nonzero; opacity: 1;"  transform=" translate(-0.0000051516, 0.000004406)" d="M -4.72104 -3.17561 C -5.149450000000001 -3.0997 -5.52831 -2.85221 -5.769950000000001 -2.49041 C -6.0116000000000005 -2.1285999999999996 -6.09508 -1.6838399999999998 -6.001100000000001 -1.2590299999999999 L -5.063470000000001 3.1824000000000003 L -5.063470000000001 3.1824000000000003 C -4.855480000000001 4.16762 -3.901630000000001 4.80875 -2.9108100000000006 4.62931 L 4.5378799999999995 3.28033 L 4.5378799999999995 3.28033 C 5.0204699999999995 3.19381 5.447849999999999 2.91651 5.72349 2.5110400000000004 C 5.99913 2.1055800000000002 6.09979 1.6061600000000005 6.00272 1.1255800000000005 L 5.1738800000000005 -3.1423499999999995 L 5.1738800000000005 -3.1423499999999995 C 4.97832 -4.155869999999999 3.9989800000000004 -4.819609999999999 2.9851300000000003 -4.625769999999999 z" stroke-linecap="round" />
</g>
<g transform="matrix(1 0 0 1 264.9826803847 291.6102963088)" id="Xe-vFZ7yJaaF41ExMr2ay"  >
<path style="stroke: rgb(0,0,0); stroke-width: 1; stroke-dasharray: none; stroke-linecap: butt; stroke-dashoffset: 0; stroke-linejoin: miter; stroke-miterlimit: 4; fill: rgb(255,255,255); fill-opacity: 0; fill-rule: nonzero; opacity: 1;"  transform=" translate(-0.00002, 0.0000066667)" d="M -4.87565 2.56203 L -1.9012900000000004 1.99635 L 2.7032299999999996 1.12064 L 5.7919 0.5332300000000001 L 5.39923 -2.4769099999999997 C 5.39923 -2.4769099999999997 5.18133 -2.6684599999999996 4.23453 -2.4769099999999997 C 3.2877300000000003 -2.28536 1.7429200000000002 -1.9728299999999996 1.7429200000000002 -1.9728299999999996 L -2.7725699999999995 -1.0592899999999996 L -5.79186 -0.44844999999999957" stroke-linecap="round" />
</g>
<g transform="matrix(1 0 0 1 264.9499578716 291.66120869)" id="_HhTSh81CQzuWsaaGN9a-"  >
<path style="stroke: rgb(0,0,0); stroke-width: 1; stroke-dasharray: none; stroke-linecap: butt; stroke-dashoffset: 0; stroke-linejoin: miter; stroke-miterlimit: 4; fill: rgb(255,255,255); fill-opacity: 0; fill-rule: nonzero; opacity: 1;"  transform=" translate(-0.000005, 0)" d="M -2.38874 -0.78534 L -1.7997299999999998 1.7015699999999998 L 2.3887500000000004 1.0471199999999998 L 1.6034100000000002 -1.70157" stroke-linecap="round" />
</g>
<g transform="matrix(1 0 0 1 319.9999999957 306.3496654572)" id="qogWasDoaYX6t4Y1084AI"  >
<path style="stroke: rgb(0,0,0); stroke-width: 1; stroke-dasharray: none; stroke-linecap: butt; stroke-dashoffset: 0; stroke-linejoin: miter; stroke-miterlimit: 4; fill: rgb(255,255,255); fill-opacity: 0; fill-rule: nonzero; opacity: 1;"  transform=" translate(-0.00002, -0.0000112397)" d="M -151.7829 -86.07384 L -120.09997000000001 -88.69295000000001 L -120.09997000000001 -88.69295000000001 C -109.73528000000002 -89.54976 -99.46691000000001 -91.32348 -89.41539000000002 -93.99329000000002 L -77.18124000000002 -97.24283000000001 L -56.275610000000015 -100.51907000000001 L -56.275610000000015 -100.51907000000001 C -49.461750000000016 -101.58691000000002 -42.542690000000015 -101.81549000000001 -35.67321000000001 -101.19971000000001 L -32.70519000000001 -100.93366 L -32.70519000000001 -100.93366 C -22.93425000000001 -100.05779 -13.587980000000009 -96.53033 -5.674900000000008 -90.73191 L 3.0973499999999916 -84.30392 L 21.83637999999999 -93.83441 L 21.83637999999999 -93.83441 C 29.281829999999992 -97.62109000000001 37.516679999999994 -99.59488 45.869749999999996 -99.59488 L 54.39698 -99.59488 L 54.39698 -99.59488 C 63.37375 -99.59488 72.2747 -97.95171 80.65978 -94.7466 L 88.90495 -91.59497 L 88.90495 -91.59497 C 98.4961 -87.92886 108.51143 -85.48737 118.71374 -84.32833000000001 L 153.98230999999998 -80.32162000000001 L 157.96461 81.62527999999999 L 126.81582999999999 81.62527999999999 L 126.81582999999999 81.62527999999999 C 117.59697 81.62527999999999 108.42206999999999 80.35491999999999 99.55004 77.85005 L 76.52405999999999 71.34904 L 76.52405999999999 71.34904 C 69.53764 69.37654 62.26481999999999 68.6161 55.02148999999999 69.10076000000001 L 41.28737999999999 70.01972 L 41.28737999999999 70.01972 C 35.90668999999999 70.37974000000001 30.62024999999999 71.61164000000001 25.634689999999992 73.66724 L 12.452709999999993 79.10232 L 12.452709999999993 79.10232 C 8.488999999999994 80.73660000000001 5.190599999999993 83.65723 3.088559999999992 87.39398 L -4.867230000000008 101.53679 L -5.9159500000000085 100.26769999999999 L -5.9159500000000085 100.26769999999999 C -13.657000000000009 90.90006 -23.915700000000008 83.94171999999999 -35.481910000000006 80.21350999999999 L -37.45360000000001 79.57795999999999 L -37.45360000000001 79.57795999999999 C -46.55936000000001 76.64283999999999 -56.28455000000001 76.19720999999998 -65.62057000000001 78.28728 L -80.53094000000002 81.62527999999999 L -99.17510000000001 85.26301 L -99.17510000000001 85.26301 C -107.89146000000001 86.96369 -116.75149000000002 87.81997 -125.63221000000001 87.81997 L -157.96457 87.81997 z" stroke-linecap="round" />
</g>
<g transform="matrix(1 0 0 1 319.80172539 323.1788516053)" id="UnByTekGIlgD405T0tDuH"  >
<path style="stroke: rgb(0,0,0); stroke-width: 1; stroke-dasharray: none; stroke-linecap: butt; stroke-dashoffset: 0; stroke-linejoin: miter; stroke-miterlimit: 4; fill: rgb(255,255,255); fill-opacity: 0; fill-rule: nonzero; opacity: 1;"  transform=" translate(0.0000188329, 0.00001)" d="M -167.87068 -81.53801 L -171.26574 86.39241 L -142.06995999999998 87.91620999999999 L -142.06995999999998 87.91620999999999 C -129.46254 88.57422 -116.82087999999999 87.91694999999999 -104.34967999999998 85.95504 L -75.73899999999998 81.45414 L -58.43086999999998 78.62675999999999 L -58.43086999999998 78.62675999999999 C -52.471559999999975 77.65326999999999 -46.36468999999998 78.14911 -40.64047999999998 80.07122 L -30.087909999999983 83.61462999999999 L -20.527029999999982 89.61634 L -20.527029999999982 89.61634 C -17.301719999999982 91.64098 -13.499019999999982 92.54616999999999 -9.707419999999981 92.19180999999999 L 6.94354000000002 90.63564999999998 L 6.94354000000002 90.63564999999998 C 8.56856000000002 90.48377999999998 10.10131000000002 89.81204999999999 11.31436000000002 88.72013999999999 L 17.766130000000018 82.91264999999999 L 17.766130000000018 82.91264999999999 C 25.487450000000017 75.96238999999998 35.382390000000015 71.90860999999998 45.76068000000002 71.44377999999999 L 57.66093000000002 70.91077999999999 L 57.66093000000002 70.91077999999999 C 63.47654000000002 70.65030999999999 69.29782000000002 71.27931999999998 74.92355000000002 72.77606999999999 L 114.13049000000002 83.20727 L 114.13049000000002 83.20727 C 122.06104000000002 85.31723 130.27694000000002 86.15108 138.46970000000002 85.67751 L 174.15722000000002 83.61463 L 167.16223000000002 -81.53801999999999 L 154.20062000000001 -97.28885999999999 L 172.73610000000002 -82.65963999999998 L 172.73610000000002 -82.65963999999998 C 173.63979000000003 -81.94638999999998 174.19430000000003 -80.87989999999998 174.25907 -79.73046999999998 L 175.49748 -57.75471999999998 L 183.3373 81.36349000000003 L 183.3373 81.36349000000003 C 183.46968999999999 83.71275000000003 182.62884 86.01286000000003 181.01251 87.72284000000003 C 179.39618 89.43282000000004 177.14703 90.40175000000004 174.79404 90.40175000000004 L 117.58565999999999 90.40175000000004 L 74.91044 85.28390000000003 L 74.91044 85.28390000000003 C 65.68365 84.17737000000002 56.342749999999995 84.46828000000004 47.20269999999999 86.14682000000003 L 27.540329999999994 89.75774000000004 L 27.540329999999994 89.75774000000004 C 25.508789999999994 90.13082000000004 24.033569999999994 91.90163000000004 24.033569999999994 93.96715000000005 L 24.033569999999994 97.03269000000004 L 24.033569999999994 97.03269000000004 C 24.033569999999994 100.33860000000004 21.353599999999993 103.01857000000004 18.047689999999996 103.01857000000004 L -15.133930000000007 103.01857000000004 L -15.133930000000007 103.01857000000004 C -17.689110000000007 103.01857000000004 -19.950520000000004 101.36499000000003 -20.725260000000006 98.93009000000004 L -21.725960000000004 95.78502000000003 L -21.725960000000004 95.78502000000003 C -22.299180000000003 93.98347000000003 -24.001400000000004 92.78362000000003 -25.890810000000005 92.84934000000003 L -173.54284 97.98506000000003 L -173.54284 97.98506000000003 C -176.20345 98.07760000000003 -178.78033000000002 97.04698000000003 -180.64333000000002 95.14523000000003 C -182.50633000000002 93.24347000000003 -183.48367000000002 90.64592000000003 -183.33637000000002 87.98778000000003 L -173.84945000000002 -83.20792999999996 L -173.84945000000002 -83.20792999999996 C -173.71059000000002 -85.71379999999996 -172.45098000000002 -88.02399999999996 -170.41981 -89.49810999999997 L -151.79005 -103.01858999999996 z" stroke-linecap="round" />
</g>
<g transform="matrix(1 0 0 1 327.9085 462.0955)" id="yXyGwJTL0T6HZmHoaVKng"  >
<path style="stroke: rgb(0,0,0); stroke-width: 1; stroke-dasharray: none; stroke-linecap: butt; stroke-dashoffset: 0; stroke-linejoin: miter; stroke-miterlimit: 4; fill: rgb(247,47,58); fill-rule: nonzero; opacity: 1;"  transform=" translate(-327.9085, -462.0955)" d="M 145.997 481.37 L 145.997 478.63 Q 148.637 478.63 149.284 478.17 Q 149.932 477.709 150.056 477.186 Q 150.181 476.663 150.181 475.916 L 150.181 475.916 L 150.181 449.47 Q 150.181 447.926 149.259 447.341 Q 148.338 446.755 145.997 446.755 L 145.997 446.755 L 145.997 444.016 L 172.593 444.016 L 173.564 453.056 L 169.953 453.081 L 169.281 450.267 Q 168.783 448.25 168.26 447.727 L 168.26 447.727 Q 167.338 446.805 165.147 446.805 L 165.147 446.805 L 155.784 446.805 L 155.784 461.298 L 160.366 461.298 Q 163.18 461.298 163.815 460.925 Q 164.45 460.551 164.686 459.854 Q 164.923 459.157 164.923 457.837 L 164.923 457.837 L 168.16 457.837 L 168.16 467.474 L 164.923 467.474 Q 164.923 465.158 164.014 464.598 Q 163.105 464.038 160.366 464.038 L 160.366 464.038 L 155.784 464.038 L 155.784 474.671 Q 155.784 475.941 155.97 476.713 Q 156.157 477.485 157.216 478.058 Q 158.274 478.63 163.603 478.63 L 163.603 478.63 L 163.603 481.37 L 145.997 481.37 Z M 196.374 477.286 L 196.374 477.286 Q 193.262 481.868 188.057 481.868 L 188.057 481.868 Q 184.297 481.868 182.205 479.552 Q 180.113 477.236 180.113 472.629 L 180.113 472.629 L 180.113 462.295 Q 180.113 460.502 179.802 459.954 Q 179.491 459.406 178.121 459.406 L 178.121 459.406 L 177.474 459.406 L 177.474 456.667 Q 179.765 456.667 180.798 456.306 Q 181.832 455.944 182.28 455.783 Q 182.728 455.621 183.375 455.621 L 183.375 455.621 Q 184.645 455.621 185.069 456.405 Q 185.492 457.19 185.492 458.908 L 185.492 458.908 L 185.492 472.803 Q 185.492 475.543 186.065 476.539 L 186.065 476.539 Q 187.161 478.456 189.825 478.456 L 189.825 478.456 Q 191.618 478.456 193.361 477.037 Q 195.104 475.617 195.827 473.725 L 195.827 473.725 L 195.827 462.295 Q 195.777 460.452 195.478 459.929 Q 195.179 459.406 193.81 459.406 L 193.81 459.406 L 192.39 459.406 L 192.39 456.667 Q 194.756 456.667 196.038 456.306 Q 197.321 455.944 197.869 455.783 Q 198.416 455.621 199.064 455.621 L 199.064 455.621 Q 200.334 455.621 200.77 456.368 Q 201.206 457.115 201.206 458.808 L 201.206 458.808 L 201.206 474.746 Q 201.206 477.161 201.43 477.734 L 201.43 477.734 Q 201.828 478.83 203.422 478.83 L 203.422 478.83 Q 204.269 478.83 204.866 478.556 L 204.866 478.556 L 204.866 480.971 Q 203.671 481.868 201.604 481.868 L 201.604 481.868 Q 197.271 481.868 196.374 477.286 Z M 222.995 459.356 L 222.995 459.356 Q 218.911 459.356 216.371 461.896 L 216.371 461.896 L 216.371 476.016 Q 216.371 477.56 216.869 477.958 L 216.869 477.958 Q 217.741 478.63 220.156 478.63 L 220.156 478.63 L 220.156 481.37 L 207.506 481.37 L 207.506 478.63 Q 209.647 478.63 210.195 478.195 Q 210.743 477.759 210.868 477.261 Q 210.992 476.763 210.992 476.016 L 210.992 476.016 L 210.992 462.444 Q 210.992 460.651 210.681 460.103 Q 210.37 459.555 208.975 459.555 L 208.975 459.555 L 207.456 459.555 L 207.456 456.816 Q 209.797 456.816 211.129 456.455 Q 212.461 456.094 213.022 455.932 Q 213.582 455.77 214.229 455.77 L 214.229 455.77 Q 215.549 455.77 215.96 456.53 Q 216.371 457.289 216.371 458.958 L 216.371 458.958 Q 219.036 456.716 222.547 455.92 L 222.547 455.92 Q 223.717 455.646 224.838 455.646 L 224.838 455.646 Q 232.906 455.646 232.906 466.329 L 232.906 466.329 L 232.906 475.966 Q 232.906 477.609 233.379 478.12 Q 233.853 478.63 235.969 478.63 L 235.969 478.63 L 235.969 481.37 L 224.19 481.37 L 224.19 478.63 Q 226.457 478.63 226.917 478.17 Q 227.378 477.709 227.453 477.211 Q 227.527 476.713 227.527 475.966 L 227.527 475.966 L 227.527 466.652 Q 227.527 463.191 226.88 461.896 L 226.88 461.896 Q 225.61 459.356 222.995 459.356 Z M 258.755 477.435 L 258.755 477.435 Q 255.791 481.868 250.686 481.868 Q 245.582 481.868 242.581 478.506 Q 239.58 475.144 239.58 469.466 L 239.58 469.466 Q 239.58 462.494 242.655 459.057 Q 245.731 455.621 251.085 455.621 L 251.085 455.621 Q 255.144 455.621 258.033 458.41 L 258.033 458.41 L 258.033 449.221 Q 258.033 447.453 257.672 446.892 Q 257.311 446.332 255.916 446.332 L 255.916 446.332 L 254.148 446.332 L 254.148 443.593 Q 256.613 443.593 258.008 443.232 Q 259.402 442.871 260 442.709 Q 260.598 442.547 261.27 442.547 L 261.27 442.547 Q 262.59 442.547 263.001 443.307 Q 263.412 444.066 263.412 445.734 L 263.412 445.734 L 263.412 474.746 Q 263.412 477.161 263.611 477.734 L 263.611 477.734 Q 264.034 478.83 265.653 478.83 L 265.653 478.83 Q 266.475 478.83 267.072 478.556 L 267.072 478.556 L 267.072 480.971 Q 265.877 481.868 263.835 481.868 L 263.835 481.868 Q 259.751 481.868 258.755 477.435 Z M 248.719 478.033 L 248.719 478.033 Q 249.915 478.88 251.608 478.88 L 251.608 478.88 Q 254.895 478.88 256.526 476.128 Q 258.157 473.376 258.157 468.52 L 258.157 468.52 Q 258.157 461.298 254.347 459.256 L 254.347 459.256 Q 253.127 458.609 251.658 458.609 L 251.658 458.609 Q 248.719 458.609 247.051 461.311 Q 245.382 464.013 245.382 468.52 L 245.382 468.52 Q 245.382 475.717 248.719 478.033 Z M 269.986 468.62 L 269.986 468.62 Q 269.986 465.631 270.92 463.104 Q 271.853 460.576 273.522 458.908 L 273.522 458.908 Q 276.809 455.621 282.263 455.621 L 282.263 455.621 Q 287.766 455.621 291.14 458.92 Q 294.515 462.22 294.515 468.284 Q 294.515 474.347 291.402 478.108 Q 288.289 481.868 282.263 481.868 L 282.263 481.868 Q 276.236 481.868 273.111 478.22 Q 269.986 474.571 269.986 468.62 Z M 282.263 478.88 L 282.263 478.88 Q 285.151 478.88 286.957 476.24 Q 288.762 473.6 288.762 468.819 L 288.762 468.819 Q 288.762 461.124 284.877 459.207 L 284.877 459.207 Q 283.682 458.609 282.263 458.609 L 282.263 458.609 Q 277.656 458.609 276.261 464.187 L 276.261 464.187 Q 275.763 466.105 275.763 468.67 L 275.763 468.67 Q 275.763 473.6 277.569 476.24 Q 279.374 478.88 282.263 478.88 Z M 325.493 481.37 L 316.08 461.523 Q 315.333 459.904 314.748 459.381 Q 314.163 458.858 312.27 458.858 L 312.27 458.858 L 312.27 456.119 L 325.593 456.119 L 325.593 458.858 Q 322.829 458.858 322.206 459.418 Q 321.583 459.979 322.206 461.523 L 322.206 461.523 L 327.834 475.169 L 333.835 461.523 Q 334.458 460.103 333.599 459.481 Q 332.74 458.858 329.826 458.858 L 329.826 458.858 L 329.826 456.119 L 341.182 456.119 L 341.182 458.858 Q 339.613 458.858 338.791 459.493 Q 337.969 460.128 337.347 461.523 L 337.347 461.523 L 328.207 481.37 L 325.493 481.37 Z M 363.992 464.237 L 363.992 475.418 Q 363.992 478.381 365.163 478.381 L 365.163 478.381 Q 366.283 478.381 366.806 477.622 Q 367.329 476.862 367.329 474.87 L 367.329 474.87 L 369.944 474.87 Q 369.969 475.194 369.969 475.891 L 369.969 475.891 Q 369.969 478.132 368.848 479.776 L 368.848 479.776 Q 367.478 481.868 364.49 481.868 L 364.49 481.868 Q 362.548 481.868 361.178 480.772 Q 359.809 479.676 359.286 477.883 L 359.286 477.883 Q 355.675 481.868 350.146 481.868 L 350.146 481.868 Q 347.108 481.868 344.855 480.087 Q 342.601 478.307 342.601 475.119 L 342.601 475.119 Q 342.601 469.591 350.769 466.951 L 350.769 466.951 Q 355.949 465.308 356.97 464.673 Q 357.991 464.038 358.302 463.378 Q 358.613 462.718 358.613 461.896 L 358.613 461.896 Q 358.613 460.427 357.169 459.443 Q 355.725 458.46 353.409 458.46 Q 351.093 458.46 349.325 459.705 L 349.325 459.705 Q 350.57 460.626 350.57 462.07 Q 350.57 463.515 349.611 464.386 Q 348.652 465.258 347.295 465.258 Q 345.938 465.258 345.054 464.436 Q 344.17 463.614 344.17 462.145 L 344.17 462.145 Q 344.17 459.232 347.108 457.426 Q 350.047 455.621 354.255 455.621 L 354.255 455.621 Q 361.776 455.621 363.444 460.502 L 363.444 460.502 Q 363.992 462.12 363.992 464.237 L 363.992 464.237 Z M 353.01 469.217 Q 350.819 470.164 349.723 471.645 Q 348.627 473.127 348.627 474.87 Q 348.627 476.613 349.574 477.51 Q 350.52 478.406 351.939 478.406 L 351.939 478.406 Q 354.828 478.406 356.721 476.377 Q 358.613 474.347 358.613 470.712 L 358.613 470.712 L 358.613 466.877 Q 357.02 467.698 355.239 468.371 Q 353.458 469.043 353.01 469.217 L 353.01 469.217 Z M 371.139 481.37 L 371.139 478.63 Q 373.306 478.63 374.115 478.033 Q 374.924 477.435 374.924 475.966 L 374.924 475.966 L 374.924 448.997 Q 374.924 447.204 374.613 446.656 Q 374.302 446.108 372.907 446.108 L 372.907 446.108 L 370.89 446.108 L 370.89 443.369 Q 373.405 443.369 374.825 443.008 Q 376.244 442.647 376.854 442.485 Q 377.464 442.323 378.137 442.323 L 378.137 442.323 Q 379.432 442.323 379.867 443.07 Q 380.303 443.817 380.303 445.51 L 380.303 445.51 L 380.303 475.966 Q 380.303 477.51 380.963 478.07 Q 381.623 478.63 384.039 478.63 L 384.039 478.63 L 384.039 481.37 L 371.139 481.37 Z M 388.073 468.62 L 388.073 468.62 Q 388.073 465.631 389.007 463.104 Q 389.94 460.576 391.609 458.908 L 391.609 458.908 Q 394.896 455.621 400.35 455.621 L 400.35 455.621 Q 405.853 455.621 409.227 458.92 Q 412.602 462.22 412.602 468.284 Q 412.602 474.347 409.489 478.108 Q 406.376 481.868 400.35 481.868 L 400.35 481.868 Q 394.323 481.868 391.198 478.22 Q 388.073 474.571 388.073 468.62 Z M 400.35 478.88 L 400.35 478.88 Q 403.238 478.88 405.044 476.24 Q 406.849 473.6 406.849 468.819 L 406.849 468.819 Q 406.849 461.124 402.964 459.207 L 402.964 459.207 Q 401.769 458.609 400.35 458.609 L 400.35 458.609 Q 395.743 458.609 394.348 464.187 L 394.348 464.187 Q 393.85 466.105 393.85 468.67 L 393.85 468.67 Q 393.85 473.6 395.655 476.24 Q 397.461 478.88 400.35 478.88 Z M 416.885 481.37 L 416.885 478.63 Q 419.026 478.63 419.574 478.195 Q 420.122 477.759 420.234 477.261 Q 420.346 476.763 420.346 476.016 L 420.346 476.016 L 420.346 462.295 Q 420.346 460.502 420.035 459.954 Q 419.724 459.406 418.354 459.406 L 418.354 459.406 L 416.835 459.406 L 416.835 456.667 Q 419.201 456.667 420.508 456.306 Q 421.815 455.944 422.376 455.783 Q 422.936 455.621 423.583 455.621 L 423.583 455.621 Q 424.853 455.621 425.289 456.368 Q 425.725 457.115 425.725 458.808 L 425.725 458.808 L 425.725 459.306 Q 427.867 456.791 430.581 455.92 L 430.581 455.92 Q 431.552 455.621 432.523 455.621 L 432.523 455.621 Q 434.391 455.621 435.425 456.692 Q 436.458 457.762 436.458 459.331 Q 436.458 460.9 435.462 461.896 Q 434.466 462.892 433.046 462.892 L 433.046 462.892 Q 431.652 462.892 430.743 461.896 Q 429.834 460.9 429.934 459.406 L 429.934 459.406 Q 428.913 459.555 427.755 460.34 Q 426.597 461.124 425.725 462.469 L 425.725 462.469 L 425.725 475.792 Q 425.725 476.738 425.887 477.298 Q 426.049 477.859 426.759 478.244 Q 427.468 478.63 431.029 478.63 L 431.029 478.63 L 431.029 481.37 L 416.885 481.37 Z M 445.572 451.014 L 445.572 451.014 Q 443.954 451.014 442.821 449.931 Q 441.687 448.847 441.687 447.278 L 441.687 447.278 Q 441.687 445.685 442.833 444.577 Q 443.978 443.468 445.572 443.468 L 445.572 443.468 Q 447.166 443.468 448.311 444.577 Q 449.457 445.685 449.457 447.278 L 449.457 447.278 Q 449.457 448.847 448.324 449.931 Q 447.191 451.014 445.572 451.014 Z M 439.222 481.37 L 439.222 478.63 Q 441.538 478.63 442.123 478.195 Q 442.708 477.759 442.833 477.261 Q 442.957 476.763 442.957 476.016 L 442.957 476.016 L 442.957 462.295 Q 442.957 460.502 442.646 459.954 Q 442.335 459.406 440.965 459.406 L 440.965 459.406 L 439.172 459.406 L 439.172 456.667 Q 441.613 456.667 443.007 456.306 Q 444.402 455.944 444.975 455.783 Q 445.547 455.621 446.22 455.621 L 446.22 455.621 Q 447.515 455.621 447.926 456.38 Q 448.336 457.14 448.336 458.808 L 448.336 458.808 L 448.336 476.016 Q 448.336 477.585 448.834 477.983 L 448.834 477.983 Q 449.681 478.63 452.047 478.63 L 452.047 478.63 L 452.047 481.37 L 439.222 481.37 Z M 456.031 481.37 L 456.031 478.556 L 471.371 458.833 L 463.552 458.833 Q 460.738 458.833 459.791 462.743 L 459.791 462.743 Q 459.493 463.888 459.318 465.158 L 459.318 465.158 L 456.081 465.133 L 456.828 456.119 L 477.397 456.119 L 477.397 459.082 L 462.257 478.63 L 470.101 478.63 Q 473.214 478.63 474.085 475.468 L 474.085 475.468 Q 474.384 474.397 474.583 472.978 L 474.583 472.978 L 477.895 472.978 L 477.148 481.37 L 456.031 481.37 Z M 503.844 464.237 L 503.844 475.418 Q 503.844 478.381 505.014 478.381 L 505.014 478.381 Q 506.135 478.381 506.658 477.622 Q 507.181 476.862 507.181 474.87 L 507.181 474.87 L 509.795 474.87 Q 509.82 475.194 509.82 475.891 L 509.82 475.891 Q 509.82 478.132 508.7 479.776 L 508.7 479.776 Q 507.33 481.868 504.342 481.868 L 504.342 481.868 Q 502.399 481.868 501.03 480.772 Q 499.66 479.676 499.137 477.883 L 499.137 477.883 Q 495.526 481.868 489.998 481.868 L 489.998 481.868 Q 486.96 481.868 484.706 480.087 Q 482.453 478.307 482.453 475.119 L 482.453 475.119 Q 482.453 469.591 490.621 466.951 L 490.621 466.951 Q 495.8 465.308 496.821 464.673 Q 497.842 464.038 498.154 463.378 Q 498.465 462.718 498.465 461.896 L 498.465 461.896 Q 498.465 460.427 497.02 459.443 Q 495.576 458.46 493.26 458.46 Q 490.944 458.46 489.176 459.705 L 489.176 459.705 Q 490.421 460.626 490.421 462.07 Q 490.421 463.515 489.463 464.386 Q 488.504 465.258 487.147 465.258 Q 485.79 465.258 484.905 464.436 Q 484.021 463.614 484.021 462.145 L 484.021 462.145 Q 484.021 459.232 486.96 457.426 Q 489.898 455.621 494.107 455.621 L 494.107 455.621 Q 501.627 455.621 503.296 460.502 L 503.296 460.502 Q 503.844 462.12 503.844 464.237 L 503.844 464.237 Z M 492.862 469.217 Q 490.67 470.164 489.575 471.645 Q 488.479 473.127 488.479 474.87 Q 488.479 476.613 489.425 477.51 Q 490.372 478.406 491.791 478.406 L 491.791 478.406 Q 494.68 478.406 496.572 476.377 Q 498.465 474.347 498.465 470.712 L 498.465 470.712 L 498.465 466.877 Q 496.871 467.698 495.091 468.371 Q 493.31 469.043 492.862 469.217 L 492.862 469.217 Z" stroke-linecap="round" />
</g>
<g transform="matrix(0.9816271834 -0.1908089954 0.1908089954 0.9816271834 223.6965 303.12)" id="Nj0o00tCLIY-ONYjl_AeU"  >
<path style="stroke: none; stroke-width: 1; stroke-dasharray: none; stroke-linecap: butt; stroke-dashoffset: 0; stroke-linejoin: miter; stroke-miterlimit: 4; fill: rgb(0,0,0); fill-rule: nonzero; opacity: 1;"  transform=" translate(-223.6965, -303.12)" d="M 203.974 304.835 L 203.974 304.47 L 204.789 304.47 L 204.789 302.03 L 203.969 302.03 L 203.969 301.77 Q 204.189 301.745 204.499 301.642 Q 204.809 301.54 205.039 301.405 L 205.039 301.405 L 205.199 301.405 L 205.199 304.47 L 205.949 304.47 L 205.949 304.835 L 203.974 304.835 Z M 206.199 304.835 L 206.199 304.77 Q 206.199 304.375 206.439 304.025 L 206.439 304.025 Q 206.524 303.895 206.632 303.772 Q 206.739 303.65 206.909 303.47 L 206.909 303.47 Q 207.144 303.215 207.284 303.04 Q 207.424 302.865 207.519 302.657 Q 207.614 302.45 207.614 302.23 L 207.614 302.23 Q 207.614 302.025 207.507 301.875 Q 207.399 301.725 207.149 301.725 L 207.149 301.725 Q 206.899 301.725 206.784 301.907 Q 206.669 302.09 206.669 302.38 L 206.669 302.38 L 206.669 302.585 L 206.244 302.585 Q 206.229 302.5 206.229 302.385 L 206.229 302.385 Q 206.229 301.865 206.492 301.605 Q 206.754 301.345 207.154 301.345 L 207.154 301.345 Q 207.554 301.345 207.802 301.565 Q 208.049 301.785 208.049 302.235 L 208.049 302.235 Q 208.049 302.51 207.937 302.76 Q 207.824 303.01 207.667 303.21 Q 207.509 303.41 207.249 303.69 L 207.249 303.69 Q 207.214 303.73 207.057 303.905 Q 206.899 304.08 206.794 304.24 L 206.794 304.24 Q 206.734 304.325 206.704 304.415 L 206.704 304.415 L 208.064 304.415 L 208.064 304.835 L 206.199 304.835 Z M 209.424 304.895 Q 208.964 304.895 208.712 304.617 Q 208.459 304.34 208.459 303.865 L 208.459 303.865 L 208.459 303.825 L 208.879 303.825 L 208.879 303.88 Q 208.879 304.2 209.012 304.365 Q 209.144 304.53 209.394 304.53 L 209.394 304.53 Q 209.649 304.53 209.797 304.37 Q 209.944 304.21 209.944 303.885 L 209.944 303.885 Q 209.944 303.275 209.379 303.275 L 209.379 303.275 L 209.094 303.275 L 209.094 302.91 L 209.389 302.91 Q 209.599 302.91 209.742 302.755 Q 209.884 302.6 209.884 302.31 L 209.884 302.31 Q 209.884 302.01 209.752 301.86 Q 209.619 301.71 209.414 301.71 L 209.414 301.71 Q 209.199 301.71 209.069 301.867 Q 208.939 302.025 208.939 302.33 L 208.939 302.33 L 208.939 302.375 L 208.519 302.375 L 208.519 302.285 Q 208.519 302.005 208.632 301.792 Q 208.744 301.58 208.947 301.462 Q 209.149 301.345 209.409 301.345 L 209.409 301.345 Q 209.819 301.345 210.062 301.59 Q 210.304 301.835 210.304 302.285 L 210.304 302.285 Q 210.304 302.57 210.187 302.752 Q 210.069 302.935 209.859 303.055 L 209.859 303.055 L 209.859 303.075 Q 210.089 303.16 210.227 303.375 Q 210.364 303.59 210.364 303.915 L 210.364 303.915 Q 210.364 304.365 210.104 304.63 Q 209.844 304.895 209.424 304.895 L 209.424 304.895 Z M 211.989 304.835 L 211.989 303.99 L 210.664 303.99 L 210.664 303.62 Q 210.934 303.125 211.169 302.527 Q 211.404 301.93 211.554 301.345 L 211.554 301.345 L 211.969 301.345 Q 211.884 301.77 211.707 302.24 Q 211.529 302.71 211.344 303.087 Q 211.159 303.465 211.049 303.625 L 211.049 303.625 L 211.989 303.625 L 211.989 302.545 Q 212.059 302.38 212.099 302.237 Q 212.139 302.095 212.199 301.855 L 212.199 301.855 L 212.399 301.855 L 212.399 303.625 L 212.749 303.625 L 212.749 303.99 L 212.399 303.99 L 212.399 304.835 L 211.989 304.835 Z M 215.409 304.835 L 215.409 303.99 L 214.084 303.99 L 214.084 303.62 Q 214.354 303.125 214.589 302.527 Q 214.824 301.93 214.974 301.345 L 214.974 301.345 L 215.389 301.345 Q 215.304 301.77 215.127 302.24 Q 214.949 302.71 214.764 303.087 Q 214.579 303.465 214.469 303.625 L 214.469 303.625 L 215.409 303.625 L 215.409 302.545 Q 215.479 302.38 215.519 302.237 Q 215.559 302.095 215.619 301.855 L 215.619 301.855 L 215.819 301.855 L 215.819 303.625 L 216.169 303.625 L 216.169 303.99 L 215.819 303.99 L 215.819 304.835 L 215.409 304.835 Z M 217.449 304.895 Q 216.959 304.895 216.712 304.512 Q 216.464 304.13 216.464 303.22 L 216.464 303.22 Q 216.464 302.52 216.577 302.107 Q 216.689 301.695 216.899 301.52 Q 217.109 301.345 217.424 301.345 L 217.424 301.345 Q 217.844 301.345 218.049 301.65 Q 218.254 301.955 218.254 302.46 L 218.254 302.46 L 217.839 302.46 Q 217.839 302.1 217.729 301.905 Q 217.619 301.71 217.404 301.71 L 217.404 301.71 Q 217.109 301.71 216.999 302.032 Q 216.889 302.355 216.884 303.005 L 216.884 303.005 Q 216.994 302.85 217.149 302.765 Q 217.304 302.68 217.489 302.68 L 217.489 302.68 Q 217.904 302.68 218.124 302.99 Q 218.344 303.3 218.344 303.785 L 218.344 303.785 Q 218.344 304.12 218.229 304.372 Q 218.114 304.625 217.909 304.76 Q 217.704 304.895 217.449 304.895 L 217.449 304.895 Z M 217.424 304.53 Q 217.669 304.53 217.797 304.32 Q 217.924 304.11 217.924 303.785 L 217.924 303.785 Q 217.924 303.46 217.797 303.25 Q 217.669 303.04 217.424 303.04 L 217.424 303.04 Q 217.179 303.04 217.049 303.25 Q 216.919 303.46 216.919 303.785 L 216.919 303.785 Q 216.919 304.11 217.049 304.32 Q 217.179 304.53 217.424 304.53 L 217.424 304.53 Z M 219.139 304.835 Q 219.139 304.04 219.432 303.27 Q 219.724 302.5 220.144 301.825 L 220.144 301.825 L 218.709 301.825 L 218.709 301.405 L 220.659 301.405 L 220.659 301.67 Q 220.214 302.345 219.907 303.09 Q 219.599 303.835 219.599 304.58 L 219.599 304.58 Q 219.599 304.715 219.604 304.835 L 219.604 304.835 L 219.139 304.835 Z M 221.964 304.895 Q 221.489 304.895 221.257 304.617 Q 221.024 304.34 221.024 303.895 L 221.024 303.895 Q 221.024 303.295 221.464 303.075 L 221.464 303.075 Q 221.284 302.955 221.189 302.752 Q 221.094 302.55 221.094 302.3 L 221.094 302.3 Q 221.094 301.885 221.322 301.615 Q 221.549 301.345 221.964 301.345 L 221.964 301.345 Q 222.379 301.345 222.607 301.615 Q 222.834 301.885 222.834 302.3 L 222.834 302.3 Q 222.834 302.55 222.739 302.752 Q 222.644 302.955 222.459 303.075 L 222.459 303.075 Q 222.904 303.295 222.904 303.895 L 222.904 303.895 Q 222.904 304.34 222.672 304.617 Q 222.439 304.895 221.964 304.895 L 221.964 304.895 Z M 221.964 302.9 Q 222.174 302.9 222.302 302.74 Q 222.429 302.58 222.429 302.305 L 222.429 302.305 Q 222.429 302.03 222.302 301.87 Q 222.174 301.71 221.964 301.71 L 221.964 301.71 Q 221.754 301.71 221.629 301.87 Q 221.504 302.03 221.504 302.305 L 221.504 302.305 Q 221.504 302.58 221.629 302.74 Q 221.754 302.9 221.964 302.9 L 221.964 302.9 Z M 221.964 304.53 Q 222.214 304.53 222.349 304.36 Q 222.484 304.19 222.484 303.895 L 222.484 303.895 Q 222.484 303.6 222.349 303.432 Q 222.214 303.265 221.964 303.265 L 221.964 303.265 Q 221.714 303.265 221.579 303.432 Q 221.444 303.6 221.444 303.895 L 221.444 303.895 Q 221.444 304.19 221.579 304.36 Q 221.714 304.53 221.964 304.53 L 221.964 304.53 Z M 225.384 304.895 Q 224.954 304.895 224.744 304.59 Q 224.534 304.285 224.534 303.78 L 224.534 303.78 L 224.949 303.78 Q 224.949 304.14 225.064 304.335 Q 225.179 304.53 225.404 304.53 L 225.404 304.53 Q 225.684 304.53 225.789 304.21 Q 225.894 303.89 225.904 303.24 L 225.904 303.24 Q 225.664 303.56 225.299 303.56 L 225.299 303.56 Q 224.884 303.56 224.664 303.25 Q 224.444 302.94 224.444 302.455 L 224.444 302.455 Q 224.444 302.12 224.559 301.867 Q 224.674 301.615 224.879 301.48 Q 225.084 301.345 225.339 301.345 L 225.339 301.345 Q 225.829 301.345 226.077 301.727 Q 226.324 302.11 226.324 303.02 L 226.324 303.02 Q 226.324 303.715 226.214 304.13 Q 226.104 304.545 225.899 304.72 Q 225.694 304.895 225.384 304.895 L 225.384 304.895 Z M 225.364 303.2 Q 225.609 303.2 225.739 302.99 Q 225.869 302.78 225.869 302.455 L 225.869 302.455 Q 225.869 302.13 225.739 301.92 Q 225.609 301.71 225.364 301.71 L 225.364 301.71 Q 225.119 301.71 224.992 301.92 Q 224.864 302.13 224.864 302.455 L 224.864 302.455 Q 224.864 302.78 224.992 302.99 Q 225.119 303.2 225.364 303.2 L 225.364 303.2 Z M 226.774 304.835 L 226.774 304.47 L 227.589 304.47 L 227.589 302.03 L 226.769 302.03 L 226.769 301.77 Q 226.989 301.745 227.299 301.642 Q 227.609 301.54 227.839 301.405 L 227.839 301.405 L 227.999 301.405 L 227.999 304.47 L 228.749 304.47 L 228.749 304.835 L 226.774 304.835 Z M 229.944 304.895 Q 229.634 304.895 229.429 304.737 Q 229.224 304.58 229.114 304.19 Q 229.004 303.8 229.004 303.12 L 229.004 303.12 Q 229.004 302.44 229.114 302.05 Q 229.224 301.66 229.429 301.502 Q 229.634 301.345 229.944 301.345 L 229.944 301.345 Q 230.254 301.345 230.459 301.505 Q 230.664 301.665 230.774 302.052 Q 230.884 302.44 230.884 303.12 L 230.884 303.12 Q 230.884 303.8 230.774 304.187 Q 230.664 304.575 230.459 304.735 Q 230.254 304.895 229.944 304.895 L 229.944 304.895 Z M 229.944 304.53 Q 230.234 304.53 230.349 304.207 Q 230.464 303.885 230.464 303.295 L 230.464 303.295 L 230.464 302.945 Q 230.464 302.355 230.349 302.032 Q 230.234 301.71 229.944 301.71 L 229.944 301.71 Q 229.654 301.71 229.539 302.032 Q 229.424 302.355 229.424 302.945 L 229.424 302.945 L 229.424 303.295 Q 229.424 303.885 229.539 304.207 Q 229.654 304.53 229.944 304.53 L 229.944 304.53 Z M 231.334 304.835 L 231.334 304.47 L 232.149 304.47 L 232.149 302.03 L 231.329 302.03 L 231.329 301.77 Q 231.549 301.745 231.859 301.642 Q 232.169 301.54 232.399 301.405 L 232.399 301.405 L 232.559 301.405 L 232.559 304.47 L 233.309 304.47 L 233.309 304.835 L 231.334 304.835 Z M 235.099 304.835 Q 235.099 304.04 235.392 303.27 Q 235.684 302.5 236.104 301.825 L 236.104 301.825 L 234.669 301.825 L 234.669 301.405 L 236.619 301.405 L 236.619 301.67 Q 236.174 302.345 235.867 303.09 Q 235.559 303.835 235.559 304.58 L 235.559 304.58 Q 235.559 304.715 235.564 304.835 L 235.564 304.835 L 235.099 304.835 Z M 237.379 304.835 Q 237.379 304.04 237.672 303.27 Q 237.964 302.5 238.384 301.825 L 238.384 301.825 L 236.949 301.825 L 236.949 301.405 L 238.899 301.405 L 238.899 301.67 Q 238.454 302.345 238.147 303.09 Q 237.839 303.835 237.839 304.58 L 237.839 304.58 Q 237.839 304.715 237.844 304.835 L 237.844 304.835 L 237.379 304.835 Z M 240.204 304.895 Q 239.729 304.895 239.497 304.617 Q 239.264 304.34 239.264 303.895 L 239.264 303.895 Q 239.264 303.295 239.704 303.075 L 239.704 303.075 Q 239.524 302.955 239.429 302.752 Q 239.334 302.55 239.334 302.3 L 239.334 302.3 Q 239.334 301.885 239.562 301.615 Q 239.789 301.345 240.204 301.345 L 240.204 301.345 Q 240.619 301.345 240.847 301.615 Q 241.074 301.885 241.074 302.3 L 241.074 302.3 Q 241.074 302.55 240.979 302.752 Q 240.884 302.955 240.699 303.075 L 240.699 303.075 Q 241.144 303.295 241.144 303.895 L 241.144 303.895 Q 241.144 304.34 240.912 304.617 Q 240.679 304.895 240.204 304.895 L 240.204 304.895 Z M 240.204 302.9 Q 240.414 302.9 240.542 302.74 Q 240.669 302.58 240.669 302.305 L 240.669 302.305 Q 240.669 302.03 240.542 301.87 Q 240.414 301.71 240.204 301.71 L 240.204 301.71 Q 239.994 301.71 239.869 301.87 Q 239.744 302.03 239.744 302.305 L 239.744 302.305 Q 239.744 302.58 239.869 302.74 Q 239.994 302.9 240.204 302.9 L 240.204 302.9 Z M 240.204 304.53 Q 240.454 304.53 240.589 304.36 Q 240.724 304.19 240.724 303.895 L 240.724 303.895 Q 240.724 303.6 240.589 303.432 Q 240.454 303.265 240.204 303.265 L 240.204 303.265 Q 239.954 303.265 239.819 303.432 Q 239.684 303.6 239.684 303.895 L 239.684 303.895 Q 239.684 304.19 239.819 304.36 Q 239.954 304.53 240.204 304.53 L 240.204 304.53 Z M 242.484 304.895 Q 242.009 304.895 241.777 304.617 Q 241.544 304.34 241.544 303.895 L 241.544 303.895 Q 241.544 303.295 241.984 303.075 L 241.984 303.075 Q 241.804 302.955 241.709 302.752 Q 241.614 302.55 241.614 302.3 L 241.614 302.3 Q 241.614 301.885 241.842 301.615 Q 242.069 301.345 242.484 301.345 L 242.484 301.345 Q 242.899 301.345 243.127 301.615 Q 243.354 301.885 243.354 302.3 L 243.354 302.3 Q 243.354 302.55 243.259 302.752 Q 243.164 302.955 242.979 303.075 L 242.979 303.075 Q 243.424 303.295 243.424 303.895 L 243.424 303.895 Q 243.424 304.34 243.192 304.617 Q 242.959 304.895 242.484 304.895 L 242.484 304.895 Z M 242.484 302.9 Q 242.694 302.9 242.822 302.74 Q 242.949 302.58 242.949 302.305 L 242.949 302.305 Q 242.949 302.03 242.822 301.87 Q 242.694 301.71 242.484 301.71 L 242.484 301.71 Q 242.274 301.71 242.149 301.87 Q 242.024 302.03 242.024 302.305 L 242.024 302.305 Q 242.024 302.58 242.149 302.74 Q 242.274 302.9 242.484 302.9 L 242.484 302.9 Z M 242.484 304.53 Q 242.734 304.53 242.869 304.36 Q 243.004 304.19 243.004 303.895 L 243.004 303.895 Q 243.004 303.6 242.869 303.432 Q 242.734 303.265 242.484 303.265 L 242.484 303.265 Q 242.234 303.265 242.099 303.432 Q 241.964 303.6 241.964 303.895 L 241.964 303.895 Q 241.964 304.19 242.099 304.36 Q 242.234 304.53 242.484 304.53 L 242.484 304.53 Z" stroke-linecap="round" />
</g>
<g transform="matrix(0.9816271834 -0.1908089954 0.1908089954 0.9816271834 222.505 313.808)" id="6C5VNL7dUaYb-crvx3LcG"  >
<path style="stroke: none; stroke-width: 1; stroke-dasharray: none; stroke-linecap: butt; stroke-dashoffset: 0; stroke-linejoin: miter; stroke-miterlimit: 4; fill: rgb(0,0,0); fill-rule: nonzero; opacity: 1;"  transform=" translate(-222.505, -313.808)" d="M 206.254 315.941 L 206.254 311.825 L 208.63 311.825 L 208.63 312.305 L 206.782 312.305 L 206.782 313.637 L 208.414 313.637 L 208.414 314.117 L 206.782 314.117 L 206.782 315.941 L 206.254 315.941 Z M 209.98 316.013 Q 209.602 316.013 209.401 315.788 Q 209.2 315.563 209.2 315.059 L 209.2 315.059 L 209.2 312.785 L 209.692 312.785 L 209.692 315.023 Q 209.692 315.329 209.806 315.452 Q 209.92 315.575 210.136 315.575 L 210.136 315.575 Q 210.382 315.575 210.553 315.341 Q 210.724 315.107 210.724 314.711 L 210.724 314.711 L 210.724 312.785 L 211.216 312.785 L 211.216 315.941 L 210.844 315.941 L 210.778 315.575 L 210.742 315.575 Q 210.496 316.013 209.98 316.013 L 209.98 316.013 Z M 211.936 315.941 L 211.936 312.785 L 212.308 312.785 L 212.374 313.151 L 212.41 313.151 Q 212.656 312.713 213.172 312.713 L 213.172 312.713 Q 213.55 312.713 213.751 312.938 Q 213.952 313.163 213.952 313.667 L 213.952 313.667 L 213.952 315.941 L 213.46 315.941 L 213.46 313.703 Q 213.46 313.397 213.346 313.274 Q 213.232 313.151 213.016 313.151 L 213.016 313.151 Q 212.77 313.151 212.599 313.385 Q 212.428 313.619 212.428 314.015 L 212.428 314.015 L 212.428 315.941 L 211.936 315.941 Z M 215.53 316.013 Q 215.062 316.013 214.807 315.605 Q 214.552 315.197 214.552 314.357 L 214.552 314.357 Q 214.552 313.541 214.813 313.127 Q 215.074 312.713 215.494 312.713 L 215.494 312.713 Q 215.728 312.713 215.908 312.812 Q 216.088 312.911 216.166 313.085 L 216.166 313.085 L 216.196 313.085 L 216.196 311.603 L 216.688 311.603 L 216.688 315.941 L 216.316 315.941 L 216.25 315.575 L 216.22 315.575 Q 216.106 315.791 215.926 315.902 Q 215.746 316.013 215.53 316.013 L 215.53 316.013 Z M 215.632 315.575 Q 216.196 315.575 216.196 314.477 L 216.196 314.477 L 216.196 314.273 Q 216.196 313.151 215.632 313.151 L 215.632 313.151 Q 215.344 313.151 215.206 313.409 Q 215.068 313.667 215.068 314.249 L 215.068 314.249 L 215.068 314.477 Q 215.068 315.059 215.206 315.317 Q 215.344 315.575 215.632 315.575 L 215.632 315.575 Z M 218.416 316.013 Q 217.858 316.013 217.573 315.608 Q 217.288 315.203 217.288 314.363 L 217.288 314.363 Q 217.288 313.523 217.573 313.118 Q 217.858 312.713 218.416 312.713 L 218.416 312.713 Q 218.974 312.713 219.259 313.118 Q 219.544 313.523 219.544 314.363 L 219.544 314.363 Q 219.544 315.203 219.259 315.608 Q 218.974 316.013 218.416 316.013 L 218.416 316.013 Z M 218.416 315.575 Q 219.028 315.575 219.028 314.477 L 219.028 314.477 L 219.028 314.249 Q 219.028 313.151 218.416 313.151 L 218.416 313.151 Q 217.804 313.151 217.804 314.249 L 217.804 314.249 L 217.804 314.477 Q 217.804 315.575 218.416 315.575 L 218.416 315.575 Z M 222.454 315.941 L 221.2 311.825 L 221.782 311.825 L 222.802 315.359 L 222.826 315.359 L 223.876 311.825 L 224.386 311.825 L 223.132 315.941 L 222.454 315.941 Z M 225.106 316.013 Q 224.782 316.013 224.53 315.821 Q 224.278 315.629 224.278 315.125 L 224.278 315.125 Q 224.278 314.519 224.689 314.294 Q 225.1 314.069 225.874 314.069 L 225.874 314.069 L 225.874 313.661 Q 225.874 313.415 225.766 313.283 Q 225.658 313.151 225.376 313.151 L 225.376 313.151 Q 225.118 313.151 225.004 313.295 Q 224.89 313.439 224.89 313.649 L 224.89 313.649 L 224.89 313.721 L 224.404 313.721 Q 224.398 313.685 224.398 313.589 L 224.398 313.589 Q 224.398 313.169 224.674 312.941 Q 224.95 312.713 225.412 312.713 L 225.412 312.713 Q 225.886 312.713 226.126 312.941 Q 226.366 313.169 226.366 313.595 L 226.366 313.595 L 226.366 315.365 Q 226.366 315.467 226.414 315.521 Q 226.462 315.575 226.534 315.575 L 226.534 315.575 L 226.726 315.575 L 226.726 315.917 Q 226.594 315.989 226.402 315.989 L 226.402 315.989 Q 226.21 315.989 226.081 315.884 Q 225.952 315.779 225.904 315.599 L 225.904 315.599 L 225.874 315.599 Q 225.754 315.797 225.553 315.905 Q 225.352 316.013 225.106 316.013 L 225.106 316.013 Z M 225.22 315.575 Q 225.382 315.575 225.532 315.485 Q 225.682 315.395 225.778 315.218 Q 225.874 315.041 225.874 314.795 L 225.874 314.795 L 225.874 314.507 Q 225.334 314.507 225.064 314.63 Q 224.794 314.753 224.794 315.095 L 224.794 315.095 Q 224.794 315.353 224.899 315.464 Q 225.004 315.575 225.22 315.575 L 225.22 315.575 Z M 227.11 315.941 L 227.11 311.603 L 227.602 311.603 L 227.602 315.941 L 227.11 315.941 Z M 229.27 316.013 Q 228.712 316.013 228.427 315.608 Q 228.142 315.203 228.142 314.363 L 228.142 314.363 Q 228.142 313.523 228.427 313.118 Q 228.712 312.713 229.27 312.713 L 229.27 312.713 Q 229.828 312.713 230.113 313.118 Q 230.398 313.523 230.398 314.363 L 230.398 314.363 Q 230.398 315.203 230.113 315.608 Q 229.828 316.013 229.27 316.013 L 229.27 316.013 Z M 229.27 315.575 Q 229.882 315.575 229.882 314.477 L 229.882 314.477 L 229.882 314.249 Q 229.882 313.151 229.27 313.151 L 229.27 313.151 Q 228.658 313.151 228.658 314.249 L 228.658 314.249 L 228.658 314.477 Q 228.658 315.575 229.27 315.575 L 229.27 315.575 Z M 230.998 315.941 L 230.998 312.785 L 231.37 312.785 L 231.436 313.199 L 231.472 313.199 Q 231.538 312.989 231.67 312.851 Q 231.802 312.713 232.006 312.713 L 232.006 312.713 Q 232.132 312.713 232.24 312.761 L 232.24 312.761 L 232.24 313.271 L 232.078 313.271 Q 231.82 313.271 231.655 313.448 Q 231.49 313.625 231.49 314.015 L 231.49 314.015 L 231.49 315.941 L 230.998 315.941 Z M 232.714 315.941 L 232.714 312.785 L 233.206 312.785 L 233.206 315.941 L 232.714 315.941 Z M 232.702 312.173 L 232.702 311.603 L 233.212 311.603 L 233.212 312.173 L 232.702 312.173 Z M 233.8 315.941 L 233.8 315.707 L 235.186 313.223 L 233.896 313.223 L 233.896 312.785 L 235.864 312.785 L 235.864 313.013 L 234.472 315.503 L 235.942 315.503 L 235.942 315.941 L 233.8 315.941 Z M 237.136 316.013 Q 236.812 316.013 236.56 315.821 Q 236.308 315.629 236.308 315.125 L 236.308 315.125 Q 236.308 314.519 236.719 314.294 Q 237.13 314.069 237.904 314.069 L 237.904 314.069 L 237.904 313.661 Q 237.904 313.415 237.796 313.283 Q 237.688 313.151 237.406 313.151 L 237.406 313.151 Q 237.148 313.151 237.034 313.295 Q 236.92 313.439 236.92 313.649 L 236.92 313.649 L 236.92 313.721 L 236.434 313.721 Q 236.428 313.685 236.428 313.589 L 236.428 313.589 Q 236.428 313.169 236.704 312.941 Q 236.98 312.713 237.442 312.713 L 237.442 312.713 Q 237.916 312.713 238.156 312.941 Q 238.396 313.169 238.396 313.595 L 238.396 313.595 L 238.396 315.365 Q 238.396 315.467 238.444 315.521 Q 238.492 315.575 238.564 315.575 L 238.564 315.575 L 238.756 315.575 L 238.756 315.917 Q 238.624 315.989 238.432 315.989 L 238.432 315.989 Q 238.24 315.989 238.111 315.884 Q 237.982 315.779 237.934 315.599 L 237.934 315.599 L 237.904 315.599 Q 237.784 315.797 237.583 315.905 Q 237.382 316.013 237.136 316.013 L 237.136 316.013 Z M 237.25 315.575 Q 237.412 315.575 237.562 315.485 Q 237.712 315.395 237.808 315.218 Q 237.904 315.041 237.904 314.795 L 237.904 314.795 L 237.904 314.507 Q 237.364 314.507 237.094 314.63 Q 236.824 314.753 236.824 315.095 L 236.824 315.095 Q 236.824 315.353 236.929 315.464 Q 237.034 315.575 237.25 315.575 L 237.25 315.575 Z" stroke-linecap="round" />
</g>
</svg>